<?xml version="1.0" encoding="UTF-8" standalone="no"?>
<svg
   xmlns:dc="http://purl.org/dc/elements/1.1/"
   xmlns:cc="http://creativecommons.org/ns#"
   xmlns:rdf="http://www.w3.org/1999/02/22-rdf-syntax-ns#"
   xmlns:svg="http://www.w3.org/2000/svg"
   xmlns="http://www.w3.org/2000/svg"
   xmlns:sodipodi="http://sodipodi.sourceforge.net/DTD/sodipodi-0.dtd"
   xmlns:inkscape="http://www.inkscape.org/namespaces/inkscape"
   viewBox="0 0 1000 439.06101"
   height="439.061"
   width="1000"
   xml:space="preserve"
   id="svg2"
   version="1.1"
   inkscape:version="0.91 r13725"
   sodipodi:docname="Telkomsel (2013).svg"><sodipodi:namedview
     pagecolor="#ffffff"
     bordercolor="#666666"
     borderopacity="1"
     objecttolerance="10"
     gridtolerance="10"
     guidetolerance="10"
     inkscape:pageopacity="0"
     inkscape:pageshadow="2"
     inkscape:window-width="1366"
     inkscape:window-height="705"
     id="namedview8073"
     showgrid="false"
     inkscape:zoom="0.37954996"
     inkscape:cx="798.94432"
     inkscape:cy="245.18333"
     inkscape:window-x="-8"
     inkscape:window-y="-8"
     inkscape:window-maximized="1"
     inkscape:current-layer="svg2" /><metadata
     id="metadata8"><rdf:RDF><cc:Work
         rdf:about=""><dc:format>image/svg+xml</dc:format><dc:type
           rdf:resource="http://purl.org/dc/dcmitype/StillImage" /><dc:title></dc:title></cc:Work></rdf:RDF></metadata><defs
     id="defs6"><clipPath
       id="clipPath40"
       clipPathUnits="userSpaceOnUse"><path
         id="path38"
         d="m 565.879,2409.88 292.047,686.12 741.704,90.8 449.75,-595.26 -292,-686.13 -741.71,-90.79 z"
         inkscape:connector-curvature="0" /></clipPath><clipPath
       id="clipPath60"
       clipPathUnits="userSpaceOnUse"><path
         id="path58"
         d="m 1742.81,1924.7 -717.7,-87.81 -435.184,575.98 282.566,663.77 717.688,87.88 435.16,-575.98 z"
         inkscape:connector-curvature="0" /></clipPath></defs><path
     id="path14"
     style="fill:#000000;fill-opacity:1;fill-rule:nonzero;stroke:none"
     d="m 342.30596,103.90968 -3.17162,18.68281 25.54465,0 -14.75597,86.97149 17.65911,0 14.75597,-86.97149 25.54589,0 3.17162,-18.68281 -68.74965,0"
     inkscape:connector-curvature="0" /><path
     id="path16"
     style="fill:#000000;fill-opacity:1;fill-rule:nonzero;stroke:none"
     d="m 415.50472,103.90968 -17.93251,105.6543 64.16324,0 3.16795,-18.69017 -46.84985,0 4.64403,-27.36769 41.19806,0 3.17285,-18.6914 -41.20173,0 3.77113,-22.22223 44.8515,0 3.17162,-18.68281 -62.15629,0"
     inkscape:connector-curvature="0" /><path
     id="path18"
     style="fill:#000000;fill-opacity:1;fill-rule:nonzero;stroke:none"
     d="m 487.96543,103.90968 -17.92515,105.6543 59.6798,0 3.25377,-19.1303 -42.03172,0 14.68732,-86.524 -17.66402,0"
     inkscape:connector-curvature="0" /><path
     id="path20"
     style="fill:#000000;fill-opacity:1;fill-rule:nonzero;stroke:none"
     d="m 555.16176,103.90968 -17.93006,105.6543 17.65421,0 6.07476,-35.75958 10.03961,-10.59252 18.26842,46.3521 22.71876,0 -25.91,-62.39291 41.84415,-43.26139 -22.84871,0 -39.54543,42.96715 7.29095,-42.96715 -17.65666,0"
     inkscape:connector-curvature="0" /><path
     id="path22"
     style="fill:#000000;fill-opacity:1;fill-rule:evenodd;stroke:none"
     d="m 666.81236,119.79479 c 14.60518,0 20.63335,14.41883 16.83157,36.79553 -4.11687,24.28557 -15.59087,37.07997 -29.25204,37.07997 -14.48136,0 -20.50953,-14.4176 -16.68445,-36.93285 4.16712,-24.57122 16.03222,-36.94265 29.10492,-36.94265 z m 3.28564,-18.68281 c -18.59209,0 -42.86172,13.23575 -50.05335,55.62546 -7.03839,41.49107 11.75843,55.62424 31.18419,55.62424 18.71469,0 42.82984,-13.09599 50.07052,-55.77136 7.17693,-42.24259 -12.83485,-55.47834 -31.20136,-55.47834"
     inkscape:connector-curvature="0" /><path
     id="path24"
     style="fill:#000000;fill-opacity:1;fill-rule:nonzero;stroke:none"
     d="m 717.37327,103.90968 -17.93251,105.6543 16.48952,0 14.95581,-88.14598 0.23785,0 0.46342,88.14598 17.3048,0 30.76123,-88.2931 0.25991,-0.13854 -15.01343,88.43164 16.48216,0 17.92392,-105.6543 -25.54097,0 -29.203,83.28617 -0.23662,0 -1.17327,-83.28617 -25.77882,0"
     inkscape:connector-curvature="0" /><path
     id="path26"
     style="fill:#000000;fill-opacity:1;fill-rule:nonzero;stroke:none"
     d="m 839.97561,101.11198 c -27.43268,0 -36.01336,20.74614 -38.03624,32.66886 -3.89741,22.9566 8.48996,27.6693 21.59453,30.89119 l 8.73516,2.66652 c 8.49731,2.642 14.36733,4.84387 12.94151,13.23452 -1.97261,11.62971 -12.89247,13.54593 -19.84014,13.54593 -9.76989,0 -16.79234,-4.41968 -15.11151,-17.07554 l -16.95417,0 c -3.8165,22.52382 7.55085,35.31822 29.7976,35.31822 16.83157,0 35.23731,-9.27214 39.53439,-34.5765 3.49161,-20.60761 -8.398,-25.46864 -17.88346,-28.55936 l -18.95988,-6.1802 c -3.35921,-1.02002 -8.49854,-2.64322 -7.04575,-11.18099 1.59869,-9.41926 10.1291,-12.50997 16.83893,-12.50997 15.42168,0 14.93251,11.18835 14.6064,15.89369 l 16.95417,0 c 2.07927,-12.94151 -1.27993,-34.13637 -27.17154,-34.13637"
     inkscape:connector-curvature="0" /><path
     id="path28"
     style="fill:#000000;fill-opacity:1;fill-rule:nonzero;stroke:none"
     d="m 882.52715,103.90968 -17.9325,105.6543 64.17059,0 3.16549,-18.69017 -46.85107,0 4.64771,-27.36769 41.19928,0 3.17285,-18.6914 -41.20663,0 3.77358,-22.22223 44.85395,0 3.17285,-18.68281 -62.1661,0"
     inkscape:connector-curvature="0" /><path
     id="path30"
     style="fill:#000000;fill-opacity:1;fill-rule:nonzero;stroke:none"
     d="m 954.99767,103.90968 -17.93741,105.6543 59.69329,0 3.24641,-19.1303 -42.0305,0 14.67751,-86.524 -17.6493,0"
     inkscape:connector-curvature="0" /><path
     id="path32"
     style="fill:#ffffff;fill-opacity:1;fill-rule:nonzero;stroke:none"
     d="M 69.319083,144.28387 105.12365,60.166479 196.05557,49.03452 251.19432,122.0126 215.39551,206.13122 124.46286,217.26195 69.319083,144.28387"
     inkscape:connector-curvature="0" /><g
     id="g34"
     transform="matrix(0.12259866,0,0,-0.12259866,-0.05692422,439.73193)"><g
       clip-path="url(#clipPath40)"
       id="g36"><path
         id="path42"
         style="fill:#ffffff;fill-opacity:1;fill-rule:nonzero;stroke:none"
         d="m 1806.43,1802.84 c -151.89,-485.84 -403,-800.74 -647.65,-770.73 -294.139,35.98 -493.526,639.96 -388.491,1349.57 105.262,710.93 417.061,1224.98 730.501,1204.49 205.09,-13.37 364.64,-290.62 409.94,-664.84 -56.74,211.72 -142.35,430.96 -288.39,450.19 C 1421.03,3398 1157.25,2991.9 1048.7,2431.7 947.891,1911.33 1027.98,1392.89 1263.41,1362.23 c 152.1,-19.76 411.81,139.15 543.02,440.61"
         inkscape:connector-curvature="0" /><path
         id="path44"
         style="fill:#ffffff;fill-opacity:1;fill-rule:nonzero;stroke:none"
         d="m 1941.32,1848.48 c 274.06,123.58 552.07,267.06 525.79,438.67 -39.9,260.28 -644.02,358 -1173.4,305.92 C 1060.21,2570.12 224.613,2401.76 237.75,2049.82 241.578,1947.38 515.629,1812.35 744.98,1746.1 387.977,1785.95 27.5508,1963.29 2.28125,2177 -35.8359,2500.27 530.297,2832.33 1275.63,2911.61 c 739.73,78.56 1379.5,-113.74 1423.39,-436.28 33.03,-242.65 -282.96,-476.6 -757.7,-626.85"
         inkscape:connector-curvature="0" /></g></g><path
     id="path46"
     style="fill:#656263;fill-opacity:1;fill-rule:nonzero;stroke:none"
     d="m 235.7003,214.23744 -87.80394,10.75681 -53.239567,-70.4599 34.564117,-81.222843 87.81374,-10.739643 53.23357,70.458676 -34.56792,81.2069"
     inkscape:connector-curvature="0" /><path
     id="path48"
     style="fill:#b0aeaf;fill-opacity:1;fill-rule:nonzero;stroke:none"
     d="m 221.40897,218.70616 c -18.62151,59.56333 -49.40726,98.17701 -79.40102,94.49047 C 105.9469,308.78553 81.502325,234.73839 94.379475,147.75096 107.28446,60.582088 145.51059,-2.4397531 183.93792,0.07229347 209.08168,1.7114376 228.64229,35.701916 234.19601,81.580787 227.23977,55.624198 216.74409,28.745668 198.83979,26.388096 c -24.68034,-3.246413 -57.01941,46.540903 -70.3275,115.220674 -12.35905,63.80525 -2.54024,127.35671 26.32316,131.11559 18.64725,2.42255 50.48735,-17.05961 66.57352,-54.0182"
     inkscape:connector-curvature="0" /><path
     id="path50"
     style="fill:#b0aeaf;fill-opacity:1;fill-rule:nonzero;stroke:none"
     d="m 237.94631,213.11076 c 33.59939,-15.15074 67.68304,-32.7412 64.46115,-53.78036 -4.89169,-31.90997 -78.95599,-43.89032 -143.85727,-37.50538 -28.62679,2.81364 -131.069861,23.45435 -129.459283,66.61031 0.469308,12.55042 34.067593,29.10492 62.185719,37.22708 C 47.508536,220.77685 3.3207669,199.03521 0.22275397,172.83465 -4.4503575,133.20218 64.956777,92.492067 156.3336,82.772446 c 90.68991,-9.631351 169.12486,13.944371 174.50571,53.487344 4.04943,29.74856 -34.69052,58.43052 -92.893,76.85097"
     inkscape:connector-curvature="0" /><path
     id="path52"
     style="fill:#ed1c24;fill-opacity:1;fill-rule:nonzero;stroke:none"
     d="m 213.60925,203.76629 -87.98906,10.76539 -53.352977,-70.61438 34.642217,-81.377311 87.98758,-10.773971 53.35004,70.614372 -34.6378,81.3859"
     inkscape:connector-curvature="0" /><g
     id="g54"
     transform="matrix(0.12259866,0,0,-0.12259866,-0.05692422,439.73193)"><g
       clip-path="url(#clipPath60)"
       id="g56"><path
         id="path62"
         style="fill:#ffffff;fill-opacity:1;fill-rule:nonzero;stroke:none"
         d="m 1806.43,1802.84 c -151.89,-485.84 -403,-800.74 -647.65,-770.73 -294.139,35.98 -493.526,639.96 -388.491,1349.57 105.262,710.93 417.061,1224.98 730.501,1204.49 205.09,-13.37 364.64,-290.62 409.94,-664.84 -56.74,211.72 -142.35,430.96 -288.39,450.19 C 1421.03,3398 1157.25,2991.9 1048.7,2431.7 947.891,1911.33 1027.98,1392.89 1263.41,1362.23 c 152.1,-19.76 411.81,139.15 543.02,440.61"
         inkscape:connector-curvature="0" /><path
         id="path64"
         style="fill:#ffffff;fill-opacity:1;fill-rule:nonzero;stroke:none"
         d="m 1941.32,1848.48 c 274.06,123.58 552.07,267.06 525.79,438.67 -39.9,260.28 -644.02,358 -1173.4,305.92 C 1060.21,2570.12 224.613,2401.76 237.75,2049.82 241.578,1947.38 515.629,1812.35 744.98,1746.1 387.977,1785.95 27.5508,1963.29 2.28125,2177 -35.8359,2500.27 530.297,2832.33 1275.63,2911.61 c 739.73,78.56 1379.5,-113.74 1423.39,-436.28 33.03,-242.65 -282.96,-476.6 -757.7,-626.85"
         inkscape:connector-curvature="0" /></g></g><path
     id="path66"
     style="fill:#ffffff;fill-opacity:1;fill-rule:nonzero;stroke:none"
     d="m 452.47925,422.33579 c 2.28769,-4.24056 3.59214,-9.0761 3.59214,-14.18111 0,-17.08436 -14.37224,-30.91595 -32.09755,-30.91595 -4.13894,0 -8.08539,0.75901 -11.71431,2.12868 0.35799,3.09133 1.03474,6.18069 2.0143,9.2155 2.41764,-0.94732 5.05965,-1.46836 7.83651,-1.46836 11.40903,0 20.65664,8.80699 20.65664,19.68628 0,4.16688 -1.36207,8.03977 -3.68163,11.20478 4.1377,2.02239 8.70818,3.46635 13.3939,4.33018"
     inkscape:connector-curvature="0" /><path
     id="path68"
     style="fill:#ed1c24;fill-opacity:1;fill-rule:nonzero;stroke:none"
     d="m 422.11034,387.11455 c -2.77196,0 -5.41887,0.52104 -7.83651,1.46836 3.25377,10.07075 9.7895,19.50655 18.9513,25.98135 1.81814,1.28827 3.7883,2.44671 5.86022,3.44858 2.31956,-3.17224 3.68163,-7.04513 3.68163,-11.21201 0,-10.87929 -9.24761,-19.68628 -20.65664,-19.68628"
     inkscape:connector-curvature="0" /><path
     id="path70"
     style="fill:#ed1c24;fill-opacity:1;fill-rule:nonzero;stroke:none"
     d="m 469.47388,397.83911 c 7.57659,-5.82344 26.72037,-18.37496 23.75594,-23.46232 -2.39435,-4.11956 -12.85692,0.84863 -24.67298,7.28261 -9.27582,5.05584 -7.27378,-1.05313 -1.37433,-9.98309 5.1945,-7.85306 13.00281,-18.46262 8.66037,-21.32506 -5.07559,-3.34314 -20.61865,15.14437 -24.25247,18.79021 -3.6326,3.65258 -6.9636,5.61747 -5.12953,-4.54387 2.43358,-13.50351 2.9154,-20.55722 -0.10543,-21.40585 -4.25418,-1.19877 -6.91947,4.10178 -13.26886,18.94333 -4.56312,10.63458 -8.5206,12.52664 -9.02326,2.96971 -0.63138,-17.15854 -5.00325,-13.22055 -6.68285,-10.58517 -4.5999,7.25637 -6.15691,16.03174 -5.12585,24.83873 3.6375,-1.3606 7.58395,-2.11961 11.71921,-2.11961 17.72899,0 32.09387,13.83159 32.09387,30.91595 0,5.10501 -1.30077,9.94055 -3.58846,14.18111 10.10826,1.85921 20.77557,0.97037 28.80333,-3.02561 1.34123,-0.66902 4.57783,-2.6512 2.55986,-5.40635 -4.03595,-5.50444 -11.30973,-2.6105 -19.08984,-4.86031 -6.83365,-1.98217 -0.74908,-7.0222 4.72128,-11.20441"
     inkscape:connector-curvature="0" /><path
     id="path72"
     style="fill:#6d6f71;fill-opacity:1;fill-rule:nonzero;stroke:none"
     d="m 439.08535,418.01284 c -3.727,5.1223 -9.93663,8.48125 -16.97501,8.48125 -11.40904,0 -20.66033,-8.81607 -20.66033,-19.69326 0,-8.22993 5.29994,-15.26599 12.82382,-18.21792 -0.97956,-3.03481 -1.65631,-6.12417 -2.0192,-9.2155 -11.9264,4.51703 -20.37835,15.68981 -20.37835,28.78727 0,17.06843 14.37224,30.90631 32.09756,30.90631 12.41556,0 23.16379,-6.79273 28.50541,-16.71796 -4.68082,-0.87107 -9.2562,-2.31503 -13.3939,-4.33019"
     inkscape:connector-curvature="0" /><path
     id="path74"
     style="fill:#000000;fill-opacity:1;fill-rule:nonzero;stroke:none"
     d="m 64.389759,394.11039 c 0,-1.21446 -1.060724,-2.24993 -2.312089,-2.24993 l -20.99502,0 c -1.256269,0 -2.320302,1.03547 -2.320302,2.24993 0,1.21643 1.039636,2.21107 2.320302,2.21107 l 8.052648,0 0,24.13808 c 0,1.30445 1.093335,2.36579 2.442901,2.36579 1.350056,0 2.446701,-1.06134 2.446701,-2.36579 l 0,-24.13808 8.05277,0 c 1.280543,0 2.312089,-0.99464 2.312089,-2.21107"
     inkscape:connector-curvature="0" /><path
     id="path76"
     style="fill:#000000;fill-opacity:1;fill-rule:nonzero;stroke:none"
     d="m 71.398479,399.06939 c -6.40909,0 -11.433306,5.26892 -11.433306,11.98782 l 0,0.0814 c 0,6.83353 5.105131,11.98794 11.873435,11.98794 3.58834,0 6.341048,-1.07752 8.918072,-3.47297 0.465016,-0.39992 0.742335,-0.95455 0.742335,-1.55124 0,-1.14066 -0.987042,-2.07891 -2.194394,-2.07891 -0.497505,0 -0.962522,0.17961 -1.402161,0.52963 -1.806491,1.61438 -3.702847,2.36628 -5.981956,2.36628 -3.681883,0 -6.373291,-2.30106 -7.041332,-5.94653 l 15.334396,0 c 1.252835,0 2.271875,-0.98606 2.271875,-2.2091 0,-5.79904 -3.804359,-11.69432 -11.086964,-11.69432 z m -0.08521,4.12618 c 3.959078,0 5.830547,2.96774 6.315179,5.98539 l -12.745969,0 c 0.652347,-3.56309 3.204851,-5.98539 6.43079,-5.98539"
     inkscape:connector-curvature="0" /><path
     id="path78"
     style="fill:#000000;fill-opacity:1;fill-rule:nonzero;stroke:none"
     d="m 87.85882,390.40129 c -1.299791,0 -2.360515,1.04405 -2.360515,2.3322 l 0,27.76676 c 0,1.30592 1.060724,2.32508 2.405509,2.32508 1.345643,0 2.361373,-1.00335 2.361373,-2.32508 l 0,-27.76676 c 0,-1.28815 -1.08083,-2.3322 -2.406367,-2.3322"
     inkscape:connector-curvature="0" /><path
     id="path80"
     style="fill:#000000;fill-opacity:1;fill-rule:nonzero;stroke:none"
     d="m 106.79553,409.81835 6.8377,-6.52409 c 0.44822,-0.44013 0.86444,-0.95443 0.86444,-1.76236 0,-1.23027 -0.98324,-2.20199 -2.23031,-2.20199 -0.70924,0 -1.28864,0.2691 -1.82697,0.85721 l -10.845691,10.71549 0,-18.16912 c 0,-1.28815 -1.076538,-2.3322 -2.405508,-2.3322 -1.301139,0 -2.361986,1.04405 -2.361986,2.3322 l 0,27.76676 c 0,1.30592 1.056556,2.32508 2.406489,2.32508 1.344785,0 2.361005,-1.00335 2.361005,-2.32508 l 0,-3.86615 3.840771,-3.68422 7.22903,8.85629 c 0.56702,0.71646 1.15843,1.01916 1.99027,1.01916 1.32468,0 2.31552,-0.94683 2.31552,-2.20199 0,-0.56322 -0.16281,-1.00335 -0.58284,-1.52489 l -7.59192,-9.2801"
     inkscape:connector-curvature="0" /><path
     id="path82"
     style="fill:#000000;fill-opacity:1;fill-rule:nonzero;stroke:none"
     d="m 127.73256,399.06939 c -6.94791,0 -12.38724,5.29332 -12.38724,12.03722 l 0,0.0723 c 0,6.69646 5.40672,11.9476 12.29775,11.9476 6.9685,0 12.43273,-5.27603 12.43273,-12.01994 l 0,-0.0987 c 0,-6.67881 -5.42377,-11.93853 -12.34324,-11.93853 z m -7.53454,11.93853 c 0,-4.37959 3.20068,-7.68203 7.44505,-7.68203 4.25294,0 7.58027,3.41695 7.58027,7.78072 l 0,0.0723 c 0,4.36365 -3.22557,7.65751 -7.49078,7.65751 -4.22352,0 -7.53454,-3.39917 -7.53454,-7.72985 l 0,-0.0987"
     inkscape:connector-curvature="0" /><path
     id="path84"
     style="fill:#000000;fill-opacity:1;fill-rule:nonzero;stroke:none"
     d="m 169.20524,399.06939 c -3.23293,0 -5.79034,1.22365 -7.7887,3.72687 -1.59868,-2.40649 -4.12667,-3.72687 -7.24925,-3.72687 -3.10298,0 -5.09643,1.27968 -6.49528,2.76374 l 0,-0.17765 c 0,-1.29783 -1.0519,-2.32557 -2.40171,-2.32557 -1.30077,0 -2.36125,1.04405 -2.36125,2.32557 l 0,18.84477 c 0,1.30592 1.0568,2.32508 2.40539,2.32508 1.34245,0 2.35757,-1.00335 2.35757,-2.32508 l 0,-10.9515 c 0,-3.56492 2.31957,-6.13287 5.50468,-6.13287 3.19615,0 5.02287,2.08761 5.02287,5.74926 l 0,11.33511 c 0,1.30592 1.04454,2.32508 2.36492,2.32508 1.34982,0 2.40171,-1.01916 2.40171,-2.32508 l 0,-11.08182 c 0,-3.58074 2.17735,-6.00255 5.41886,-6.00255 3.26603,0 5.06455,2.0789 5.06455,5.84783 l 0,11.23654 c 0,1.30592 1.06416,2.32508 2.40539,2.32508 1.32652,0 2.36493,-1.01916 2.36493,-2.32508 l 0,-12.00413 c 0,-5.80578 -3.45361,-9.42673 -9.01468,-9.42673"
     inkscape:connector-curvature="0" /><path
     id="path86"
     style="fill:#000000;fill-opacity:1;fill-rule:nonzero;stroke:none"
     d="m 195.44748,391.95719 c -1.19901,0 -2.20923,1.00384 -2.20923,2.18667 l 0,26.65038 c 0,1.18295 1.01022,2.18618 2.20923,2.18618 1.2407,0 2.25214,-0.97883 2.25214,-2.18618 l 0,-26.65038 c 0,-1.20772 -1.01144,-2.18667 -2.25214,-2.18667"
     inkscape:connector-curvature="0" /><path
     id="path88"
     style="fill:#000000;fill-opacity:1;fill-rule:nonzero;stroke:none"
     d="m 214.88059,399.44393 c -2.98037,0 -5.39434,1.08463 -7.20512,3.22201 l 0,-0.83281 c 0,-1.19007 -0.96975,-2.12819 -2.20064,-2.12819 -1.19534,0 -2.16142,0.95394 -2.16142,2.12819 l 0,19.01002 c 0,1.19914 0.96608,2.13727 2.19697,2.13727 1.23089,0 2.16509,-0.9228 2.16509,-2.13727 l 0,-11.0899 c 0,-3.76035 2.56967,-6.36226 6.25131,-6.36226 3.64486,0 5.72903,2.2183 5.72903,6.10836 l 0,11.3438 c 0,1.19914 0.96731,2.13727 2.20187,2.13727 1.21005,0 2.16142,-0.93813 2.16142,-2.13727 l 0,-12.14253 c 0,-5.62667 -3.58479,-9.25669 -9.13851,-9.25669"
     inkscape:connector-curvature="0" /><path
     id="path90"
     style="fill:#000000;fill-opacity:1;fill-rule:nonzero;stroke:none"
     d="m 248.66633,390.6867 c -1.23089,0 -2.16019,0.91324 -2.16019,2.1369 l 0,10.32268 c -2.16509,-2.45393 -4.89291,-3.70235 -8.12216,-3.70235 -5.4679,0 -11.26681,4.16014 -11.26681,11.88299 l 0,0.0895 c 0,7.67345 5.79891,11.82452 11.26681,11.82452 3.2317,0 5.90681,-1.28005 8.12216,-3.88147 l 0,1.48368 c 0,1.19914 0.96976,2.13727 2.20555,2.13727 1.21128,0 2.15774,-0.93813 2.15774,-2.13727 l 0,-28.01955 c 0,-1.19154 -0.9673,-2.1369 -2.2031,-2.1369 z m -2.03023,20.59082 0,0.0738 c 0,4.93264 -3.96362,7.98326 -7.64525,7.98326 -4.23211,0 -7.4209,-3.43276 -7.4209,-7.98326 l 0,-0.0738 c 0,-4.66501 3.05025,-7.92723 7.4209,-7.92723 3.75519,0 7.64525,2.961 7.64525,7.92723"
     inkscape:connector-curvature="0" /><path
     id="path92"
     style="fill:#000000;fill-opacity:1;fill-rule:nonzero;stroke:none"
     d="m 266.50199,399.44393 c -6.88269,0 -12.28071,5.23582 -12.28071,11.90739 l 0,0.0967 c 0,6.62989 5.35756,11.8331 12.19121,11.8331 6.90598,0 12.31381,-5.23533 12.31381,-11.92983 l 0,-0.0738 c 0,-6.63848 -5.37105,-11.83359 -12.22431,-11.83359 z m -7.82548,11.83359 c 0,-4.54192 3.32365,-7.97603 7.73598,-7.97603 4.40742,0 7.86103,3.54004 7.86103,8.04983 l 0,0.0967 c 0,4.51887 -3.33959,7.93581 -7.77153,7.93581 -4.39149,0 -7.82548,-3.53133 -7.82548,-8.03254 l 0,-0.0738"
     inkscape:connector-curvature="0" /><path
     id="path94"
     style="fill:#000000;fill-opacity:1;fill-rule:nonzero;stroke:none"
     d="m 293.60855,399.44393 c -2.98896,0 -5.4066,1.08463 -7.2088,3.22201 l 0,-0.83281 c 0,-1.19007 -0.96976,-2.12819 -2.20678,-2.12819 -1.18553,0 -2.16019,0.95394 -2.16019,2.12819 l 0,19.01002 c 0,1.19914 0.97466,2.13727 2.20555,2.13727 1.2358,0 2.16142,-0.9228 2.16142,-2.13727 l 0,-11.0899 c 0,-3.76035 2.57334,-6.36226 6.24763,-6.36226 3.64853,0 5.73148,2.2183 5.73148,6.10836 l 0,11.3438 c 0,1.19914 0.96731,2.13727 2.20678,2.13727 1.21127,0 2.16019,-0.93813 2.16019,-2.13727 l 0,-12.14253 c 0,-5.62667 -3.58356,-9.25669 -9.13728,-9.25669"
     inkscape:connector-curvature="0" /><path
     id="path96"
     style="fill:#000000;fill-opacity:1;fill-rule:nonzero;stroke:none"
     d="m 317.058,399.453 c -6.34081,0 -11.30728,5.21093 -11.30728,11.87392 l 0,0.0895 c 0,6.75102 5.05229,11.86473 11.74863,11.86473 3.5664,0 6.29054,-1.05974 8.84795,-3.44134 0.43154,-0.37503 0.67184,-0.87303 0.67184,-1.40314 0,-1.0508 -0.88517,-1.89023 -1.97752,-1.89023 -0.45607,0 -0.87168,0.15472 -1.28361,0.48034 -1.85982,1.66366 -3.81649,2.438 -6.17407,2.438 -3.84837,0 -6.74783,-2.56109 -7.35959,-6.43398 l 15.72695,0 c 1.14875,0 2.07069,-0.90466 2.07069,-2.00706 0,-5.75638 -3.75887,-11.57074 -10.96399,-11.57074 z m -6.83365,10.19248 c 0.59583,-3.84126 3.31139,-6.4748 6.75273,-6.4748 4.24069,0 6.1851,3.24654 6.63381,6.4748 l -13.38654,0"
     inkscape:connector-curvature="0" /><path
     id="path98"
     style="fill:#000000;fill-opacity:1;fill-rule:nonzero;stroke:none"
     d="m 340.09306,409.32844 -0.0834,-0.0244 c -2.75602,-0.81516 -5.35266,-1.59146 -5.35266,-3.27094 l 0,-0.0896 c 0,-1.59807 1.54475,-2.68993 3.85328,-2.68993 1.75684,0 3.70616,0.57033 5.63831,1.63877 0.19248,0.0901 0.54189,0.22706 0.98692,0.22706 1.09726,0 1.9861,-0.83956 1.9861,-1.87441 0,-0.72505 -0.39967,-1.39407 -1.06906,-1.77818 -2.35267,-1.23224 -5.05474,-1.94147 -7.46136,-1.94147 -4.81199,0 -8.17487,2.7814 -8.17487,6.76156 l 0,0.0809 c 0,4.4941 4.52511,5.74926 7.82424,6.64668 2.98038,0.81565 5.25948,1.57417 5.25948,3.38397 l 0,0.0809 c 0,1.78675 -1.67592,2.97682 -4.15854,2.97682 -2.30363,0 -4.60726,-0.74994 -6.87043,-2.2427 -0.26481,-0.20253 -0.67307,-0.3347 -1.10952,-0.3347 -1.09603,0 -1.98487,0.8577 -1.98487,1.88545 0,0.74993 0.41561,1.30445 0.82264,1.58937 2.56599,1.76959 5.90925,2.83803 8.96318,2.83803 5.10133,0 8.52551,-2.83803 8.52551,-7.04513 l 0,-0.0895 c 0,-4.51899 -4.57047,-5.84796 -7.59498,-6.72859"
     inkscape:connector-curvature="0" /><path
     id="path100"
     style="fill:#000000;fill-opacity:1;fill-rule:nonzero;stroke:none"
     d="m 353.63285,399.70494 c -1.19043,0 -2.16018,0.95394 -2.16018,2.12819 l 0,19.01002 c 0,1.19914 0.96975,2.13727 2.20922,2.13727 1.22722,0 2.15651,-0.9228 2.15651,-2.13727 l 0,-19.01002 c 0,-1.19007 -0.96975,-2.12819 -2.20555,-2.12819"
     inkscape:connector-curvature="0" /><path
     id="path102"
     style="fill:#000000;fill-opacity:1;fill-rule:nonzero;stroke:none"
     d="m 377.53224,402.17604 c -1.74213,-1.70388 -4.31915,-2.56121 -7.6428,-2.56121 -2.72292,0 -5.05597,0.47372 -7.56679,1.51765 -0.57131,0.22889 -1.21496,0.88884 -1.21496,1.8098 0,1.02051 0.90478,1.87637 1.9812,1.87637 0.25255,0 0.53453,-0.0565 0.79934,-0.14614 1.85492,-0.80792 3.70248,-1.19864 5.6518,-1.19864 2.83693,0 6.20962,0.96117 6.20962,5.48003 l 0,0.11255 c -1.65998,-0.42235 -3.62892,-0.78157 -6.42172,-0.78157 -6.25498,0 -10.13768,2.89407 -10.13768,7.56765 l 0,0.0722 c 0,4.80391 4.48589,7.3162 8.92151,7.3162 3.66202,0 6.09192,-1.43477 7.63789,-2.961 l 0,0.68483 c 0,1.1512 0.90846,2.01565 2.12464,2.01565 1.19901,0 2.11605,-0.9065 2.11605,-2.09656 l 0,-11.96343 c 0,-2.89406 -0.83245,-5.16164 -2.4581,-6.74439 z m -1.73355,10.31594 0,1.74617 c 0,3.08986 -3.02573,5.43112 -7.03839,5.43112 -2.4912,0 -5.1614,-1.20772 -5.1614,-3.86615 l 0,-0.0809 c 0,-2.5362 2.26685,-4.03669 6.07967,-4.03669 2.04985,0 4.05679,0.26102 6.12012,0.80646"
     inkscape:connector-curvature="0" /><path
     id="path104"
     style="fill:#000000;fill-opacity:1;fill-rule:nonzero;stroke:none"
     d="m 3.4960462,419.22927 0,2.37289 -3.49454443,0 0,-21.098 3.49454443,0 0,8.38464 c 1.1302003,-1.59145 2.7163205,-2.86243 5.1745217,-2.86243 3.6132891,0 7.1078411,2.86243 7.1078411,7.91816 l 0,0.0651 c 0,5.05584 -3.466722,7.90908 -7.1078411,7.90908 -2.5156632,0 -4.1017834,-1.27098 -5.1745217,-2.68944 z m 8.7260208,-5.21964 0,-0.0651 c 0,-2.94519 -1.993638,-4.88531 -4.3632371,-4.88531 -2.3681648,0 -4.4518638,1.96452 -4.4518638,4.88531 l 0,0.0651 c 0,2.93624 2.083699,4.86765 4.4518638,4.86765 2.4021741,0 4.3632371,-1.86631 4.3632371,-4.86765"
     inkscape:connector-curvature="0" /><path
     id="path106"
     style="fill:#000000;fill-opacity:1;fill-rule:nonzero;stroke:none"
     d="m 18.142234,425.37783 1.187245,-2.60191 c 0.635552,0.35922 1.325169,0.58664 2.051076,0.58664 0.98226,0 1.589491,-0.42419 2.168525,-1.7604 l -6.356495,-15.25924 3.726876,0 4.334476,11.3351 3.959569,-11.3351 3.641057,0 -6.068143,15.68356 c -1.214462,3.12957 -2.576043,4.2809 -5.026545,4.2809 -1.475965,0 -2.544903,-0.3434 -3.617641,-0.92955"
     inkscape:connector-curvature="0" /></svg>